<svg width="363" height="47" viewBox="0 0 363 47" fill="none" xmlns="http://www.w3.org/2000/svg">
<path d="M353.187 13.75C353.187 13.5167 353.17 13.35 353.137 13.25C353.137 13.15 353.137 13.0667 353.137 13.0001C353.137 12.9001 353.137 12.7834 353.137 12.6501C353.137 12.5167 353.137 12.3167 353.137 12.0501C353.137 11.9834 352.987 11.95 352.687 11.95C352.42 11.9167 352.087 11.9167 351.687 11.95C351.32 11.9834 350.954 12.0167 350.587 12.0501C350.254 12.0834 350.02 12.1001 349.887 12.1001C349.487 12.1334 349.154 12.1667 348.887 12.2001C348.62 12.2001 348.37 12.2001 348.137 12.2001C347.904 12.2001 347.654 12.2001 347.387 12.2001C347.12 12.1667 346.787 12.1334 346.387 12.1001C346.254 16.5001 346.22 20.75 346.287 24.85C346.387 28.9501 346.437 33.0501 346.437 37.1501C347.237 37.0834 347.92 37.0667 348.487 37.1C349.087 37.1334 349.637 37.1501 350.137 37.1501C350.637 37.1834 351.12 37.1834 351.587 37.1501C352.054 37.1167 352.57 37.0167 353.137 36.85V36.6501C353.137 35.4167 353.12 34.2667 353.087 33.2001C353.087 32.1001 353.087 31.0334 353.087 30.0001C353.087 28.9334 353.07 27.8834 353.037 26.85C353.004 25.8167 352.97 24.7167 352.937 23.5501C352.904 22.6167 353.037 21.9001 353.337 21.4001C353.637 20.9001 354.054 20.5334 354.587 20.3001C355.154 20.0667 355.804 19.9501 356.537 19.9501C357.304 19.9501 358.137 20.0001 359.037 20.1C359.07 20.1 359.287 20.1334 359.687 20.2001C360.12 20.2667 360.537 20.3501 360.937 20.4501C361.104 20.5167 361.27 20.5834 361.437 20.6501C361.637 20.6834 361.82 20.7334 361.987 20.8001L362.437 20.9501C362.404 20.45 362.387 19.9167 362.387 19.35C362.387 18.7834 362.387 18.1667 362.387 17.5001C362.387 16.8001 362.387 16.0167 362.387 15.1501C362.42 14.2834 362.437 13.2834 362.437 12.1501C362.437 12.1167 362.187 12.1001 361.687 12.1001C361.22 12.0667 360.637 12.0667 359.937 12.1001C359.237 12.1334 358.487 12.2167 357.687 12.3501C356.887 12.4501 356.17 12.6001 355.537 12.8001C355.07 12.9667 354.587 13.15 354.087 13.35C353.62 13.5501 353.32 13.6834 353.187 13.75Z" fill="white"/>
<path d="M330.12 24.4501C330.454 24.5168 330.987 24.5668 331.72 24.6001C332.454 24.6335 333.27 24.6501 334.17 24.6501C335.104 24.6501 336.07 24.6335 337.07 24.6001C338.07 24.5668 339.004 24.5168 339.87 24.4501C340.77 24.3835 341.537 24.3168 342.17 24.2501C342.837 24.1835 343.287 24.1168 343.52 24.0501C343.62 22.6501 343.62 21.2668 343.52 19.9001C343.42 18.5335 343.12 17.2835 342.62 16.1501C342.154 15.0168 341.454 14.0501 340.52 13.2501C339.587 12.4501 338.354 11.9168 336.82 11.6501C335.62 11.3501 334.387 11.2168 333.12 11.2501C331.854 11.2835 330.654 11.4835 329.52 11.8501C328.387 12.1835 327.37 12.7001 326.47 13.4001C325.57 14.0668 324.904 14.8835 324.47 15.8501C324.07 16.9501 323.804 18.0835 323.67 19.2501C323.57 20.3835 323.47 21.5668 323.37 22.8001C323.304 24.1668 323.337 25.5335 323.47 26.9001C323.604 28.2668 323.854 29.5668 324.22 30.8001C324.587 32.0001 325.07 33.1168 325.67 34.1501C326.27 35.1501 327.02 35.9668 327.92 36.6001C328.72 37.0668 329.587 37.3668 330.52 37.5001C331.454 37.5001 332.47 37.5334 333.57 37.6001C334.704 37.6668 335.804 37.6668 336.87 37.6001C337.937 37.5334 338.92 37.3335 339.82 37.0001C340.72 36.6668 341.454 36.1001 342.02 35.3001C342.254 35.1001 342.437 34.7501 342.57 34.2501C342.737 33.7168 342.87 33.1001 342.97 32.4001C343.07 31.6668 343.154 30.8835 343.22 30.0501C343.287 29.2168 343.354 28.3668 343.42 27.5001C343.054 27.4001 342.587 27.3501 342.02 27.3501C341.454 27.3168 340.854 27.3168 340.22 27.3501C339.62 27.3834 339.037 27.4168 338.47 27.4501C337.904 27.4501 337.454 27.4335 337.12 27.4001C337.187 28.7668 336.97 29.8001 336.47 30.5001C336.004 31.1668 335.42 31.5668 334.72 31.7001C334.02 31.8335 333.304 31.7168 332.57 31.3501C331.837 30.9834 331.27 30.4168 330.87 29.6501C330.504 29.0501 330.287 28.4335 330.22 27.8001C330.187 27.1668 330.154 26.3501 330.12 25.3501V24.4501ZM336.17 16.7001C336.77 17.0001 337.237 17.4501 337.57 18.0501C337.937 18.6501 338.12 19.2835 338.12 19.9501C338.12 20.2168 338.12 20.4001 338.12 20.5001C338.12 20.5668 338.02 20.6168 337.82 20.6501C337.654 20.6501 337.354 20.6335 336.92 20.6001C336.487 20.5668 335.837 20.5501 334.97 20.5501C333.704 20.5501 332.737 20.5668 332.07 20.6001C331.437 20.6001 330.97 20.5835 330.67 20.5501C330.37 20.4835 330.204 20.3835 330.17 20.2501C330.17 20.0835 330.204 19.8168 330.27 19.4501C330.337 19.0168 330.437 18.6001 330.57 18.2001C330.737 17.8001 330.97 17.4501 331.27 17.1501C331.57 16.8501 331.97 16.6168 332.47 16.4501C332.97 16.2835 333.62 16.2001 334.42 16.2001C334.787 16.2001 335.104 16.2501 335.37 16.3501C335.637 16.4168 335.904 16.5335 336.17 16.7001Z" fill="white"/>
<path d="M313.968 0.650146C313.668 3.68348 313.518 6.71681 313.518 9.75015C313.551 12.7835 313.618 15.8168 313.718 18.8501C313.818 21.8835 313.884 24.9168 313.918 27.9501C313.984 30.9835 313.901 34.0001 313.668 37.0001C313.901 36.9335 314.368 36.9168 315.068 36.9501C315.768 36.9835 316.501 37.0001 317.268 37.0001C318.068 37.0335 318.801 37.0335 319.468 37.0001C320.134 37.0001 320.551 36.9002 320.718 36.7001C320.651 35.3668 320.601 33.7501 320.568 31.8501C320.534 29.9168 320.518 27.8501 320.518 25.6501C320.518 23.4501 320.518 21.1668 320.518 18.8001C320.551 16.4335 320.584 14.1501 320.618 11.9501C320.651 9.75015 320.684 7.68348 320.718 5.75015C320.751 3.81681 320.768 2.16681 320.768 0.800148L313.968 0.650146Z" fill="white"/>
<path d="M298.989 0.700099C298.556 0.633432 298.056 0.600098 297.489 0.600098C296.922 0.600098 296.322 0.616764 295.689 0.650097C295.089 0.650097 294.472 0.666765 293.839 0.700099C293.239 0.700099 292.689 0.700099 292.189 0.700099C292.222 6.76677 292.172 12.7834 292.039 18.7501C291.906 24.7168 291.956 30.8001 292.189 37.0001C292.689 37.0668 293.239 37.1001 293.839 37.1001C294.472 37.1001 295.089 37.0834 295.689 37.0501C296.289 37.0168 296.856 37.0001 297.389 37.0001C297.956 36.9668 298.422 36.9668 298.789 37.0001C298.922 36.2668 299.006 35.4668 299.039 34.6001C299.072 33.7001 299.089 32.8168 299.089 31.9501C299.089 31.0834 299.072 30.2501 299.039 29.4501C299.006 28.6501 298.989 27.9501 298.989 27.3501C299.556 28.0834 300.056 28.8501 300.489 29.6501C300.956 30.4501 301.389 31.2668 301.789 32.1001C302.189 32.9001 302.589 33.7168 302.989 34.5501C303.422 35.3834 303.889 36.2001 304.389 37.0001C304.889 37.1001 305.489 37.1668 306.189 37.2001C306.922 37.2334 307.672 37.2334 308.439 37.2001C309.206 37.1668 309.939 37.1168 310.639 37.0501C311.372 37.0168 311.972 37.0001 312.439 37.0001C311.172 34.4334 309.772 31.9668 308.239 29.6001C306.739 27.2001 305.239 24.7834 303.739 22.3501C305.139 20.4834 306.556 18.6334 307.989 16.8001C309.422 14.9334 310.756 13.0501 311.989 11.1501C311.522 11.1168 310.922 11.1334 310.189 11.2001C309.456 11.2334 308.706 11.2668 307.939 11.3001C307.206 11.3001 306.489 11.3001 305.789 11.3001C305.089 11.2668 304.522 11.1668 304.089 11.0001C303.589 11.5668 303.139 12.1668 302.739 12.8001C302.372 13.4334 302.006 14.0668 301.639 14.7001C301.272 15.3001 300.872 15.9001 300.439 16.5001C300.039 17.1001 299.556 17.6501 298.989 18.1501C298.889 17.3834 298.856 16.3834 298.889 15.1501C298.956 13.9168 298.989 12.7501 298.989 11.6501V0.700099Z" fill="white"/>
<path d="M275.872 24.4501C276.206 24.5168 276.739 24.5668 277.472 24.6001C278.206 24.6335 279.022 24.6501 279.922 24.6501C280.856 24.6501 281.822 24.6335 282.822 24.6001C283.822 24.5668 284.756 24.5168 285.622 24.4501C286.522 24.3835 287.289 24.3168 287.922 24.2501C288.589 24.1835 289.039 24.1168 289.272 24.0501C289.372 22.6501 289.372 21.2668 289.272 19.9001C289.172 18.5335 288.872 17.2835 288.372 16.1501C287.906 15.0168 287.206 14.0501 286.272 13.2501C285.339 12.4501 284.106 11.9168 282.572 11.6501C281.372 11.3501 280.139 11.2168 278.872 11.2501C277.606 11.2835 276.406 11.4835 275.272 11.8501C274.139 12.1835 273.122 12.7001 272.222 13.4001C271.322 14.0668 270.656 14.8835 270.222 15.8501C269.822 16.9501 269.556 18.0835 269.422 19.2501C269.322 20.3835 269.222 21.5668 269.122 22.8001C269.056 24.1668 269.089 25.5335 269.222 26.9001C269.356 28.2668 269.606 29.5668 269.972 30.8001C270.339 32.0001 270.822 33.1168 271.422 34.1501C272.022 35.1501 272.772 35.9668 273.672 36.6001C274.472 37.0668 275.339 37.3668 276.272 37.5001C277.206 37.5001 278.222 37.5334 279.322 37.6001C280.456 37.6668 281.556 37.6668 282.622 37.6001C283.689 37.5334 284.672 37.3335 285.572 37.0001C286.472 36.6668 287.206 36.1001 287.772 35.3001C288.006 35.1001 288.189 34.7501 288.322 34.2501C288.489 33.7168 288.622 33.1001 288.722 32.4001C288.822 31.6668 288.906 30.8835 288.972 30.0501C289.039 29.2168 289.106 28.3668 289.172 27.5001C288.806 27.4001 288.339 27.3501 287.772 27.3501C287.206 27.3168 286.606 27.3168 285.972 27.3501C285.372 27.3834 284.789 27.4168 284.222 27.4501C283.656 27.4501 283.206 27.4335 282.872 27.4001C282.939 28.7668 282.722 29.8001 282.222 30.5001C281.756 31.1668 281.172 31.5668 280.472 31.7001C279.772 31.8335 279.056 31.7168 278.322 31.3501C277.589 30.9834 277.022 30.4168 276.622 29.6501C276.256 29.0501 276.039 28.4335 275.972 27.8001C275.939 27.1668 275.906 26.3501 275.872 25.3501V24.4501ZM281.922 16.7001C282.522 17.0001 282.989 17.4501 283.322 18.0501C283.689 18.6501 283.872 19.2835 283.872 19.9501C283.872 20.2168 283.872 20.4001 283.872 20.5001C283.872 20.5668 283.772 20.6168 283.572 20.6501C283.406 20.6501 283.106 20.6335 282.672 20.6001C282.239 20.5668 281.589 20.5501 280.722 20.5501C279.456 20.5501 278.489 20.5668 277.822 20.6001C277.189 20.6001 276.722 20.5835 276.422 20.5501C276.122 20.4835 275.956 20.3835 275.922 20.2501C275.922 20.0835 275.956 19.8168 276.022 19.4501C276.089 19.0168 276.189 18.6001 276.322 18.2001C276.489 17.8001 276.722 17.4501 277.022 17.1501C277.322 16.8501 277.722 16.6168 278.222 16.4501C278.722 16.2835 279.372 16.2001 280.172 16.2001C280.539 16.2001 280.856 16.2501 281.122 16.3501C281.389 16.4168 281.656 16.5335 281.922 16.7001Z" fill="white"/>
<path d="M242.292 14.7C242.259 14.2333 242.242 13.8167 242.242 13.45C242.276 13.0833 242.259 12.6167 242.192 12.05C242.192 11.95 242.059 11.9 241.792 11.9C241.526 11.8667 241.226 11.8667 240.892 11.9C240.559 11.9333 240.226 11.9833 239.892 12.05C239.559 12.0833 239.326 12.1 239.192 12.1C238.792 12.1333 238.459 12.1667 238.192 12.2C237.926 12.2 237.676 12.2 237.442 12.2C237.209 12.2 236.959 12.2 236.692 12.2C236.426 12.1667 236.092 12.1333 235.692 12.1C235.559 16.5 235.526 20.75 235.592 24.85C235.692 28.95 235.742 33.05 235.742 37.15C236.542 37.0833 237.209 37.0667 237.742 37.1C238.276 37.1333 238.759 37.15 239.192 37.15C239.626 37.1833 240.042 37.1833 240.442 37.15C240.876 37.1167 241.376 37.0167 241.942 36.85V36.65C242.076 35.55 242.142 34.45 242.142 33.35C242.142 32.25 242.109 31.15 242.042 30.05C242.009 28.9167 241.976 27.8 241.942 26.7C241.909 25.5667 241.926 24.4167 241.992 23.25C242.059 22.35 242.292 21.6833 242.692 21.25C243.092 20.7833 243.542 20.4833 244.042 20.35C244.542 20.1833 245.042 20.15 245.542 20.25C246.076 20.3167 246.476 20.4167 246.742 20.55C246.776 20.5833 246.809 20.6 246.842 20.6C246.876 20.6 246.909 20.6167 246.942 20.65C247.209 20.85 247.409 21.1333 247.542 21.5C247.709 21.8667 247.826 22.2833 247.892 22.75C247.992 23.2167 248.059 23.7 248.092 24.2C248.126 24.6667 248.159 25.1 248.192 25.5C248.259 26.4 248.292 27.3667 248.292 28.4C248.326 29.4333 248.326 30.4667 248.292 31.5C248.292 32.5333 248.292 33.5333 248.292 34.5C248.292 35.4667 248.326 36.3333 248.392 37.1C249.559 37.1 250.592 37.1 251.492 37.1C252.426 37.1333 253.476 37.0667 254.642 36.9C254.576 35.9 254.542 34.75 254.542 33.45C254.576 32.1167 254.609 30.75 254.642 29.35C254.676 27.9167 254.709 26.4833 254.742 25.05C254.776 23.5833 254.776 22.2 254.742 20.9C255.042 20.6667 255.359 20.5 255.692 20.4C256.059 20.2667 256.409 20.2 256.742 20.2C257.109 20.2 257.442 20.2333 257.742 20.3C258.042 20.3667 258.292 20.45 258.492 20.55C258.526 20.5833 258.559 20.6 258.592 20.6C258.626 20.6 258.659 20.6167 258.692 20.65C258.959 20.85 259.159 21.1333 259.292 21.5C259.459 21.8667 259.576 22.2833 259.642 22.75C259.742 23.2167 259.809 23.7 259.842 24.2C259.876 24.6667 259.909 25.1 259.942 25.5C260.009 26.4 260.042 27.3667 260.042 28.4C260.076 29.4333 260.076 30.4667 260.042 31.5C260.042 32.5333 260.042 33.5333 260.042 34.5C260.042 35.4667 260.076 36.3333 260.142 37.1C261.309 37.1 262.342 37.1 263.242 37.1C264.176 37.1333 265.226 37.0667 266.392 36.9C266.326 35.7667 266.309 34.45 266.342 32.95C266.376 31.45 266.409 29.9 266.442 28.3C266.476 26.6667 266.492 25.0667 266.492 23.5C266.526 21.9 266.509 20.4333 266.442 19.1C266.409 17.7667 266.292 16.6333 266.092 15.7C265.926 14.7333 265.676 14.1 265.342 13.8C264.642 13.2 263.859 12.7833 262.992 12.55C262.126 12.3167 261.226 12.2167 260.292 12.25C259.392 12.2833 258.509 12.45 257.642 12.75C256.776 13.05 255.992 13.45 255.292 13.95C255.126 14.0833 254.926 14.2167 254.692 14.35C254.459 14.45 254.259 14.55 254.092 14.65C253.926 14.25 253.759 13.9667 253.592 13.8C252.892 13.2 252.109 12.7833 251.242 12.55C250.376 12.3167 249.476 12.2167 248.542 12.25C247.642 12.2833 246.759 12.45 245.892 12.75C245.026 13.05 244.242 13.45 243.542 13.95C243.376 14.0833 243.159 14.2167 242.892 14.35C242.659 14.4833 242.459 14.6 242.292 14.7Z" fill="white"/>
<path d="M219.476 24.4501C219.809 24.5168 220.342 24.5668 221.076 24.6001C221.809 24.6335 222.626 24.6501 223.526 24.6501C224.459 24.6501 225.426 24.6335 226.426 24.6001C227.426 24.5668 228.359 24.5168 229.226 24.4501C230.126 24.3835 230.892 24.3168 231.526 24.2501C232.192 24.1835 232.642 24.1168 232.876 24.0501C232.976 22.6501 232.976 21.2668 232.876 19.9001C232.776 18.5335 232.476 17.2835 231.976 16.1501C231.509 15.0168 230.809 14.0501 229.876 13.2501C228.942 12.4501 227.709 11.9168 226.176 11.6501C224.976 11.3501 223.742 11.2168 222.476 11.2501C221.209 11.2835 220.009 11.4835 218.876 11.8501C217.742 12.1835 216.726 12.7001 215.826 13.4001C214.926 14.0668 214.259 14.8835 213.826 15.8501C213.426 16.9501 213.159 18.0835 213.026 19.2501C212.926 20.3835 212.826 21.5668 212.726 22.8001C212.659 24.1668 212.692 25.5335 212.826 26.9001C212.959 28.2668 213.209 29.5668 213.576 30.8001C213.942 32.0001 214.426 33.1168 215.026 34.1501C215.626 35.1501 216.376 35.9668 217.276 36.6001C218.076 37.0668 218.942 37.3668 219.876 37.5001C220.809 37.5001 221.826 37.5334 222.926 37.6001C224.059 37.6668 225.159 37.6668 226.226 37.6001C227.292 37.5334 228.276 37.3335 229.176 37.0001C230.076 36.6668 230.809 36.1001 231.376 35.3001C231.609 35.1001 231.792 34.7501 231.926 34.2501C232.092 33.7168 232.226 33.1001 232.326 32.4001C232.426 31.6668 232.509 30.8835 232.576 30.0501C232.642 29.2168 232.709 28.3668 232.776 27.5001C232.409 27.4001 231.942 27.3501 231.376 27.3501C230.809 27.3168 230.209 27.3168 229.576 27.3501C228.976 27.3834 228.392 27.4168 227.826 27.4501C227.259 27.4501 226.809 27.4335 226.476 27.4001C226.542 28.7668 226.326 29.8001 225.826 30.5001C225.359 31.1668 224.776 31.5668 224.076 31.7001C223.376 31.8335 222.659 31.7168 221.926 31.3501C221.192 30.9834 220.626 30.4168 220.226 29.6501C219.859 29.0501 219.642 28.4335 219.576 27.8001C219.542 27.1668 219.509 26.3501 219.476 25.3501V24.4501ZM225.526 16.7001C226.126 17.0001 226.592 17.4501 226.926 18.0501C227.292 18.6501 227.476 19.2835 227.476 19.9501C227.476 20.2168 227.476 20.4001 227.476 20.5001C227.476 20.5668 227.376 20.6168 227.176 20.6501C227.009 20.6501 226.709 20.6335 226.276 20.6001C225.842 20.5668 225.192 20.5501 224.326 20.5501C223.059 20.5501 222.092 20.5668 221.426 20.6001C220.792 20.6001 220.326 20.5835 220.026 20.5501C219.726 20.4835 219.559 20.3835 219.526 20.2501C219.526 20.0835 219.559 19.8168 219.626 19.4501C219.692 19.0168 219.792 18.6001 219.926 18.2001C220.092 17.8001 220.326 17.4501 220.626 17.1501C220.926 16.8501 221.326 16.6168 221.826 16.4501C222.326 16.2835 222.976 16.2001 223.776 16.2001C224.142 16.2001 224.459 16.2501 224.726 16.3501C224.992 16.4168 225.259 16.5335 225.526 16.7001Z" fill="white"/>
<path d="M215.719 2.3501C215.519 2.31676 215.252 2.3001 214.919 2.3001C214.585 2.26676 214.219 2.2501 213.819 2.2501C212.952 2.2501 212.002 2.28343 210.969 2.3501C209.969 2.38343 209.169 2.46676 208.569 2.6001C208.269 3.26676 207.952 4.1001 207.619 5.1001C207.285 6.1001 206.935 7.11676 206.569 8.1501C206.235 9.18343 205.885 10.1834 205.519 11.1501C205.185 12.0834 204.852 12.8501 204.519 13.4501C204.219 12.8168 203.869 12.0334 203.469 11.1001C203.102 10.1668 202.735 9.18343 202.369 8.1501C202.035 7.11676 201.702 6.1001 201.369 5.1001C201.069 4.1001 200.835 3.23343 200.669 2.5001C200.302 2.33343 199.919 2.23343 199.519 2.2001C199.119 2.13343 198.719 2.1001 198.319 2.1001C197.585 2.1001 196.852 2.1501 196.119 2.2501C195.385 2.3501 194.685 2.4001 194.019 2.4001C194.352 3.8001 194.802 5.21676 195.369 6.6501C195.935 8.08343 196.519 9.51676 197.119 10.9501C197.752 12.3834 198.352 13.8334 198.919 15.3001C199.485 16.7334 199.952 18.1834 200.319 19.6501V19.7501C199.152 22.6834 197.985 25.6334 196.819 28.6001C195.652 31.5334 194.635 34.3501 193.769 37.0501H193.869C194.069 37.0834 194.269 37.1001 194.469 37.1001C194.669 37.1001 194.869 37.1001 195.069 37.1001C195.835 37.1001 196.635 37.0668 197.469 37.0001C198.302 36.9668 199.069 36.9501 199.769 36.9501C200.002 36.9501 200.219 36.9501 200.419 36.9501C200.619 36.9501 200.819 36.9668 201.019 37.0001C202.019 34.0668 203.169 31.1834 204.469 28.3501C205.769 25.4834 207.102 22.6334 208.469 19.8001C209.835 16.9334 211.152 14.0668 212.419 11.2001C213.685 8.33343 214.785 5.4001 215.719 2.4001V2.3501Z" fill="white"/>
<path d="M170.18 0.700099C169.747 0.633432 169.247 0.600098 168.68 0.600098C168.114 0.600098 167.514 0.616764 166.88 0.650097C166.28 0.650097 165.664 0.666765 165.03 0.700099C164.43 0.700099 163.88 0.700099 163.38 0.700099C163.414 6.76677 163.364 12.7834 163.23 18.7501C163.097 24.7168 163.147 30.8001 163.38 37.0001C163.88 37.0668 164.43 37.1001 165.03 37.1001C165.664 37.1001 166.28 37.0834 166.88 37.0501C167.48 37.0168 168.047 37.0001 168.58 37.0001C169.147 36.9668 169.614 36.9668 169.98 37.0001C170.114 36.2668 170.197 35.4668 170.23 34.6001C170.264 33.7001 170.28 32.8168 170.28 31.9501C170.28 31.0834 170.264 30.2501 170.23 29.4501C170.197 28.6501 170.18 27.9501 170.18 27.3501C170.747 28.0834 171.247 28.8501 171.68 29.6501C172.147 30.4501 172.58 31.2668 172.98 32.1001C173.38 32.9001 173.78 33.7168 174.18 34.5501C174.614 35.3834 175.08 36.2001 175.58 37.0001C176.08 37.1001 176.68 37.1668 177.38 37.2001C178.114 37.2334 178.864 37.2334 179.63 37.2001C180.397 37.1668 181.13 37.1168 181.83 37.0501C182.564 37.0168 183.164 37.0001 183.63 37.0001C182.364 34.4334 180.964 31.9668 179.43 29.6001C177.93 27.2001 176.43 24.7834 174.93 22.3501C176.33 20.4834 177.747 18.6334 179.18 16.8001C180.614 14.9334 181.947 13.0501 183.18 11.1501C182.714 11.1168 182.114 11.1334 181.38 11.2001C180.647 11.2334 179.897 11.2668 179.13 11.3001C178.397 11.3001 177.68 11.3001 176.98 11.3001C176.28 11.2668 175.714 11.1668 175.28 11.0001C174.78 11.5668 174.33 12.1668 173.93 12.8001C173.564 13.4334 173.197 14.0668 172.83 14.7001C172.464 15.3001 172.064 15.9001 171.63 16.5001C171.23 17.1001 170.747 17.6501 170.18 18.1501C170.08 17.3834 170.047 16.3834 170.08 15.1501C170.147 13.9168 170.18 12.7501 170.18 11.6501V0.700099Z" fill="white"/>
<path d="M159.029 11.8502C157.962 11.8835 157.045 11.8835 156.279 11.8502C155.512 11.8169 154.912 11.7835 154.479 11.7502C154.312 11.7502 154.062 11.7335 153.729 11.7002C153.429 11.6669 153.212 11.6669 153.079 11.7002V11.7502C152.879 13.7169 152.779 15.7502 152.779 17.8502C152.779 19.9169 152.812 22.0169 152.879 24.1502C152.945 26.2835 152.979 28.4335 152.979 30.6002C153.012 32.7669 152.945 34.9002 152.779 37.0002C153.012 36.9335 153.479 36.9169 154.179 36.9502C154.879 36.9835 155.612 37.0002 156.379 37.0002C157.179 37.0335 157.912 37.0335 158.579 37.0002C159.245 37.0002 159.662 36.9002 159.829 36.7002C159.595 32.6669 159.529 28.5502 159.629 24.3502C159.762 20.1502 159.845 16.0335 159.879 12.0002V11.8502H159.029ZM152.879 0.950195C152.845 2.48353 152.862 3.78353 152.929 4.8502C153.029 5.88353 153.079 6.88353 153.079 7.8502C153.712 7.81686 154.395 7.83353 155.129 7.9002C155.862 7.93353 156.545 7.96686 157.179 8.00019C157.845 8.00019 158.412 7.96686 158.879 7.9002C159.379 7.83353 159.695 7.70019 159.829 7.50019C159.829 7.00019 159.812 6.43353 159.779 5.8002C159.779 5.13353 159.762 4.50019 159.729 3.90019C159.729 3.26686 159.712 2.70019 159.679 2.20019C159.679 1.66686 159.679 1.30019 159.679 1.10019L152.879 0.950195Z" fill="white"/>
<path d="M142.824 18.8502C142.757 20.1502 142.707 21.6002 142.674 23.2002C142.674 24.8002 142.674 26.4335 142.674 28.1002C142.674 29.7669 142.674 31.4169 142.674 33.0502C142.674 34.6835 142.657 36.2002 142.624 37.6002C142.29 38.0669 141.807 38.4335 141.174 38.7002C140.54 38.9669 139.857 39.1669 139.124 39.3002C138.39 39.4669 137.657 39.5669 136.924 39.6002C136.157 39.6335 135.49 39.6335 134.924 39.6002C134.857 40.0669 134.79 40.5835 134.724 41.1502C134.657 41.7169 134.607 42.3002 134.574 42.9002C134.54 43.5002 134.557 44.1002 134.624 44.7002C134.657 45.3002 134.757 45.8502 134.924 46.3502C136.257 46.4169 137.64 46.4002 139.074 46.3002C140.507 46.2335 141.857 46.0502 143.124 45.7502C144.39 45.4502 145.507 45.0002 146.474 44.4002C147.474 43.8002 148.19 42.9835 148.624 41.9502C148.89 40.3502 149.074 38.8002 149.174 37.3002C149.307 35.8335 149.374 34.3835 149.374 32.9502C149.407 31.4835 149.407 30.0169 149.374 28.5502C149.374 27.0502 149.374 25.4835 149.374 23.8502C149.307 23.2502 149.29 22.4502 149.324 21.4502C149.357 20.4169 149.374 19.3502 149.374 18.2502C149.407 17.1169 149.424 16.0002 149.424 14.9002C149.424 13.7669 149.374 12.8002 149.274 12.0002C148.84 11.9335 148.357 11.9169 147.824 11.9502C147.324 11.9835 146.79 12.0335 146.224 12.1002C145.657 12.1335 145.074 12.1669 144.474 12.2002C143.907 12.2335 143.357 12.2169 142.824 12.1502V18.8502ZM142.524 0.950195C142.49 2.48353 142.507 3.78353 142.574 4.8502C142.674 5.88353 142.724 6.88353 142.724 7.8502C143.357 7.81686 144.04 7.83353 144.774 7.9002C145.507 7.93353 146.174 7.96686 146.774 8.00019C147.407 8.00019 147.957 7.96686 148.424 7.9002C148.89 7.83353 149.19 7.70019 149.324 7.50019C149.324 7.00019 149.307 6.43353 149.274 5.8002C149.274 5.13353 149.257 4.50019 149.224 3.90019C149.224 3.26686 149.207 2.70019 149.174 2.20019C149.174 1.66686 149.174 1.30019 149.174 1.10019L142.524 0.950195Z" fill="white"/>
<path d="M120.762 14.2001C120.662 14.5667 120.512 15.0667 120.312 15.7C120.112 16.3001 119.995 16.7834 119.962 17.1501C119.862 17.7834 119.795 18.4001 119.762 19.0001C119.728 19.5667 119.712 20.1501 119.712 20.7501C119.812 21.8501 119.828 23.0667 119.762 24.4001C119.728 25.7334 119.745 27.0667 119.812 28.4001C119.878 29.7001 120.078 30.9501 120.412 32.1501C120.745 33.3501 121.362 34.3501 122.262 35.1501C123.428 36.3167 124.862 37.0501 126.562 37.35C127.495 37.35 128.528 37.3834 129.662 37.4501C130.795 37.5501 131.895 37.5501 132.962 37.4501C134.028 37.3834 135.012 37.1834 135.912 36.85C136.845 36.5167 137.595 35.9501 138.162 35.1501C138.495 34.8167 138.745 34.2001 138.912 33.3001C139.112 32.4001 139.262 31.3834 139.362 30.2501C139.495 29.1167 139.578 27.9334 139.612 26.7001C139.678 25.4667 139.728 24.3667 139.762 23.4001C139.728 22.3001 139.695 21.2334 139.662 20.2001C139.628 19.1334 139.545 18.1667 139.412 17.3001C139.278 16.4001 139.078 15.6167 138.812 14.9501C138.545 14.2834 138.178 13.8 137.712 13.5C137.012 12.8334 136.178 12.3334 135.212 12.0001C134.245 11.6334 133.228 11.4167 132.162 11.35C131.462 11.2834 130.795 11.2834 130.162 11.35C129.562 11.3834 128.928 11.3667 128.262 11.3001C127.462 11.3001 126.662 11.3501 125.862 11.4501C125.095 11.5501 124.362 11.7334 123.662 12.0001C122.995 12.2334 122.395 12.5334 121.862 12.9001C121.362 13.2667 120.995 13.7001 120.762 14.2001ZM127.012 20.1C127.445 19.5667 128.012 19.2001 128.712 19.0001C130.012 18.7001 131.062 18.8167 131.862 19.35C132.662 19.8834 133.145 20.7334 133.312 21.9001C133.512 22.8667 133.562 23.9001 133.462 25.0001C133.395 26.0667 133.295 27.1334 133.162 28.2001C132.962 29.0334 132.578 29.5834 132.012 29.85C131.578 30.0834 131.028 30.25 130.362 30.35C129.695 30.4167 129.045 30.3834 128.412 30.2501C127.812 30.0834 127.295 29.8 126.862 29.4C126.428 28.9667 126.228 28.3667 126.262 27.6C126.328 26.4334 126.362 25.3334 126.362 24.3001C126.362 23.2334 126.428 22.1667 126.562 21.1C126.662 20.5667 126.812 20.2334 127.012 20.1Z" fill="white"/>
<path d="M110.159 0.650146C109.859 3.68348 109.709 6.71681 109.709 9.75015C109.742 12.7835 109.809 15.8168 109.909 18.8501C110.009 21.8835 110.076 24.9168 110.109 27.9501C110.176 30.9835 110.092 34.0001 109.859 37.0001C110.092 36.9335 110.559 36.9168 111.259 36.9501C111.959 36.9835 112.692 37.0001 113.459 37.0001C114.259 37.0335 114.992 37.0335 115.659 37.0001C116.326 37.0001 116.742 36.9002 116.909 36.7001C116.842 35.3668 116.792 33.7501 116.759 31.8501C116.726 29.9168 116.709 27.8501 116.709 25.6501C116.709 23.4501 116.709 21.1668 116.709 18.8001C116.742 16.4335 116.776 14.1501 116.809 11.9501C116.842 9.75015 116.876 7.68348 116.909 5.75015C116.942 3.81681 116.959 2.16681 116.959 0.800148L110.159 0.650146Z" fill="white"/>
<path d="M88.0468 14.2001C87.9468 14.5667 87.7968 15.0667 87.5968 15.7C87.3968 16.3001 87.2802 16.7834 87.2468 17.1501C87.1468 17.7834 87.0802 18.4001 87.0468 19.0001C87.0135 19.5667 86.9968 20.1501 86.9968 20.7501C87.0968 21.8501 87.1135 23.0667 87.0468 24.4001C87.0135 25.7334 87.0302 27.0667 87.0968 28.4001C87.1635 29.7001 87.3635 30.9501 87.6968 32.1501C88.0302 33.3501 88.6468 34.3501 89.5468 35.1501C90.7135 36.3167 92.1468 37.0501 93.8468 37.35C94.7802 37.35 95.8135 37.3834 96.9468 37.4501C98.0802 37.5501 99.1802 37.5501 100.247 37.4501C101.313 37.3834 102.297 37.1834 103.197 36.85C104.13 36.5167 104.88 35.9501 105.447 35.1501C105.78 34.8167 106.03 34.2001 106.197 33.3001C106.397 32.4001 106.547 31.3834 106.647 30.2501C106.78 29.1167 106.863 27.9334 106.897 26.7001C106.963 25.4667 107.013 24.3667 107.047 23.4001C107.013 22.3001 106.98 21.2334 106.947 20.2001C106.913 19.1334 106.83 18.1667 106.697 17.3001C106.563 16.4001 106.363 15.6167 106.097 14.9501C105.83 14.2834 105.463 13.8 104.997 13.5C104.297 12.8334 103.463 12.3334 102.497 12.0001C101.53 11.6334 100.513 11.4167 99.4468 11.35C98.7468 11.2834 98.0802 11.2834 97.4468 11.35C96.8468 11.3834 96.2135 11.3667 95.5468 11.3001C94.7468 11.3001 93.9468 11.3501 93.1468 11.4501C92.3802 11.5501 91.6468 11.7334 90.9468 12.0001C90.2802 12.2334 89.6802 12.5334 89.1468 12.9001C88.6468 13.2667 88.2802 13.7001 88.0468 14.2001ZM94.2968 20.1C94.7302 19.5667 95.2968 19.2001 95.9968 19.0001C97.2968 18.7001 98.3468 18.8167 99.1468 19.35C99.9468 19.8834 100.43 20.7334 100.597 21.9001C100.797 22.8667 100.847 23.9001 100.747 25.0001C100.68 26.0667 100.58 27.1334 100.447 28.2001C100.247 29.0334 99.8635 29.5834 99.2968 29.85C98.8635 30.0834 98.3135 30.25 97.6468 30.35C96.9802 30.4167 96.3302 30.3834 95.6968 30.2501C95.0968 30.0834 94.5802 29.8 94.1468 29.4C93.7135 28.9667 93.5135 28.3667 93.5468 27.6C93.6135 26.4334 93.6468 25.3334 93.6468 24.3001C93.6468 23.2334 93.7135 22.1667 93.8468 21.1C93.9468 20.5667 94.0968 20.2334 94.2968 20.1Z" fill="white"/>
<path d="M71.737 14.7C71.7037 14.2333 71.687 13.8167 71.687 13.45C71.7203 13.0833 71.7037 12.6167 71.637 12.05C71.637 11.95 71.5037 11.9 71.237 11.9C70.9703 11.8667 70.6703 11.8667 70.337 11.9C70.0037 11.9333 69.6703 11.9833 69.337 12.05C69.0037 12.0833 68.7703 12.1 68.637 12.1C68.237 12.1333 67.9037 12.1667 67.637 12.2C67.3703 12.2 67.1203 12.2 66.887 12.2C66.6537 12.2 66.4037 12.2 66.137 12.2C65.8703 12.1667 65.537 12.1333 65.137 12.1C65.0037 16.5 64.9703 20.75 65.037 24.85C65.137 28.95 65.187 33.05 65.187 37.15C65.987 37.0833 66.6537 37.0667 67.187 37.1C67.7203 37.1333 68.2037 37.15 68.637 37.15C69.0703 37.1833 69.487 37.1833 69.887 37.15C70.3203 37.1167 70.8203 37.0167 71.387 36.85V36.65C71.5203 35.55 71.587 34.45 71.587 33.35C71.587 32.25 71.5537 31.15 71.487 30.05C71.4537 28.9167 71.4203 27.8 71.387 26.7C71.3537 25.5667 71.3703 24.4167 71.437 23.25C71.5037 22.35 71.737 21.6833 72.137 21.25C72.537 20.7833 72.987 20.4833 73.487 20.35C73.987 20.1833 74.487 20.15 74.987 20.25C75.5203 20.3167 75.9203 20.4167 76.187 20.55C76.2203 20.5833 76.2537 20.6 76.287 20.6C76.3203 20.6 76.3537 20.6167 76.387 20.65C76.6537 20.85 76.8537 21.1333 76.987 21.5C77.1537 21.8667 77.2703 22.2833 77.337 22.75C77.437 23.2167 77.5037 23.7 77.537 24.2C77.5703 24.6667 77.6037 25.1 77.637 25.5C77.7037 26.4 77.737 27.3667 77.737 28.4C77.7703 29.4333 77.7703 30.4667 77.737 31.5C77.737 32.5333 77.737 33.5333 77.737 34.5C77.737 35.4667 77.7703 36.3333 77.837 37.1C79.0037 37.1 80.037 37.1 80.937 37.1C81.8703 37.1333 82.9203 37.0667 84.087 36.9C84.0203 35.7667 84.0037 34.45 84.037 32.95C84.0703 31.45 84.1037 29.9 84.137 28.3C84.1703 26.6667 84.187 25.0667 84.187 23.5C84.2203 21.9 84.2037 20.4333 84.137 19.1C84.1037 17.7667 83.987 16.6333 83.787 15.7C83.6203 14.7333 83.3703 14.1 83.037 13.8C82.337 13.2 81.5537 12.7833 80.687 12.55C79.8203 12.3167 78.9203 12.2167 77.987 12.25C77.087 12.2833 76.2037 12.45 75.337 12.75C74.4703 13.05 73.687 13.45 72.987 13.95C72.8203 14.0833 72.6037 14.2167 72.337 14.35C72.1037 14.4833 71.9037 14.6 71.737 14.7Z" fill="white"/>
<path d="M50.2586 0.700099C49.8252 0.633432 49.3252 0.600098 48.7586 0.600098C48.1919 0.600098 47.5919 0.616764 46.9586 0.650097C46.3586 0.650097 45.7419 0.666765 45.1086 0.700099C44.5086 0.700099 43.9586 0.700099 43.4586 0.700099C43.4919 6.76677 43.4419 12.7834 43.3086 18.7501C43.1752 24.7168 43.2252 30.8001 43.4586 37.0001C43.9586 37.0668 44.5086 37.1001 45.1086 37.1001C45.7419 37.1001 46.3586 37.0834 46.9586 37.0501C47.5586 37.0168 48.1252 37.0001 48.6586 37.0001C49.2252 36.9668 49.6919 36.9668 50.0586 37.0001C50.1919 36.2668 50.2752 35.4668 50.3086 34.6001C50.3419 33.7001 50.3586 32.8168 50.3586 31.9501C50.3586 31.0834 50.3419 30.2501 50.3086 29.4501C50.2752 28.6501 50.2586 27.9501 50.2586 27.3501C50.8252 28.0834 51.3252 28.8501 51.7586 29.6501C52.2252 30.4501 52.6586 31.2668 53.0586 32.1001C53.4586 32.9001 53.8586 33.7168 54.2586 34.5501C54.6919 35.3834 55.1586 36.2001 55.6586 37.0001C56.1586 37.1001 56.7586 37.1668 57.4586 37.2001C58.1919 37.2334 58.9419 37.2334 59.7086 37.2001C60.4752 37.1668 61.2086 37.1168 61.9086 37.0501C62.6419 37.0168 63.2419 37.0001 63.7086 37.0001C62.4419 34.4334 61.0419 31.9668 59.5086 29.6001C58.0086 27.2001 56.5086 24.7834 55.0086 22.3501C56.4086 20.4834 57.8252 18.6334 59.2586 16.8001C60.6919 14.9334 62.0252 13.0501 63.2586 11.1501C62.7919 11.1168 62.1919 11.1334 61.4586 11.2001C60.7252 11.2334 59.9752 11.2668 59.2086 11.3001C58.4752 11.3001 57.7586 11.3001 57.0586 11.3001C56.3586 11.2668 55.7919 11.1668 55.3586 11.0001C54.8586 11.5668 54.4086 12.1668 54.0086 12.8001C53.6419 13.4334 53.2752 14.0668 52.9086 14.7001C52.5419 15.3001 52.1419 15.9001 51.7086 16.5001C51.3086 17.1001 50.8252 17.6501 50.2586 18.1501C50.1586 17.3834 50.1252 16.3834 50.1586 15.1501C50.2252 13.9168 50.2586 12.7501 50.2586 11.6501V0.700099Z" fill="white"/>
<path d="M27.1417 24.4501C27.4751 24.5168 28.0084 24.5668 28.7417 24.6001C29.4751 24.6335 30.2917 24.6501 31.1917 24.6501C32.1251 24.6501 33.0917 24.6335 34.0917 24.6001C35.0917 24.5668 36.0251 24.5168 36.8917 24.4501C37.7917 24.3835 38.5584 24.3168 39.1917 24.2501C39.8584 24.1835 40.3084 24.1168 40.5417 24.0501C40.6417 22.6501 40.6417 21.2668 40.5417 19.9001C40.4417 18.5335 40.1417 17.2835 39.6417 16.1501C39.1751 15.0168 38.4751 14.0501 37.5417 13.2501C36.6084 12.4501 35.3751 11.9168 33.8417 11.6501C32.6417 11.3501 31.4084 11.2168 30.1417 11.2501C28.8751 11.2835 27.6751 11.4835 26.5417 11.8501C25.4084 12.1835 24.3917 12.7001 23.4917 13.4001C22.5917 14.0668 21.9251 14.8835 21.4917 15.8501C21.0917 16.9501 20.8251 18.0835 20.6917 19.2501C20.5917 20.3835 20.4917 21.5668 20.3917 22.8001C20.3251 24.1668 20.3584 25.5335 20.4917 26.9001C20.6251 28.2668 20.8751 29.5668 21.2417 30.8001C21.6084 32.0001 22.0917 33.1168 22.6917 34.1501C23.2917 35.1501 24.0417 35.9668 24.9417 36.6001C25.7417 37.0668 26.6084 37.3668 27.5417 37.5001C28.4751 37.5001 29.4917 37.5334 30.5917 37.6001C31.7251 37.6668 32.8251 37.6668 33.8917 37.6001C34.9584 37.5334 35.9417 37.3335 36.8417 37.0001C37.7417 36.6668 38.4751 36.1001 39.0417 35.3001C39.2751 35.1001 39.4584 34.7501 39.5917 34.2501C39.7584 33.7168 39.8917 33.1001 39.9917 32.4001C40.0917 31.6668 40.1751 30.8835 40.2417 30.0501C40.3084 29.2168 40.3751 28.3668 40.4417 27.5001C40.0751 27.4001 39.6084 27.3501 39.0417 27.3501C38.4751 27.3168 37.8751 27.3168 37.2417 27.3501C36.6417 27.3834 36.0584 27.4168 35.4917 27.4501C34.9251 27.4501 34.4751 27.4335 34.1417 27.4001C34.2084 28.7668 33.9917 29.8001 33.4917 30.5001C33.0251 31.1668 32.4417 31.5668 31.7417 31.7001C31.0417 31.8335 30.3251 31.7168 29.5917 31.3501C28.8584 30.9834 28.2917 30.4168 27.8917 29.6501C27.5251 29.0501 27.3084 28.4335 27.2417 27.8001C27.2084 27.1668 27.1751 26.3501 27.1417 25.3501V24.4501ZM33.1917 16.7001C33.7917 17.0001 34.2584 17.4501 34.5917 18.0501C34.9584 18.6501 35.1417 19.2835 35.1417 19.9501C35.1417 20.2168 35.1417 20.4001 35.1417 20.5001C35.1417 20.5668 35.0417 20.6168 34.8417 20.6501C34.6751 20.6501 34.3751 20.6335 33.9417 20.6001C33.5084 20.5668 32.8584 20.5501 31.9917 20.5501C30.7251 20.5501 29.7584 20.5668 29.0917 20.6001C28.4584 20.6001 27.9917 20.5835 27.6917 20.5501C27.3917 20.4835 27.2251 20.3835 27.1917 20.2501C27.1917 20.0835 27.2251 19.8168 27.2917 19.4501C27.3584 19.0168 27.4584 18.6001 27.5917 18.2001C27.7584 17.8001 27.9917 17.4501 28.2917 17.1501C28.5917 16.8501 28.9917 16.6168 29.4917 16.4501C29.9917 16.2835 30.6417 16.2001 31.4417 16.2001C31.8084 16.2001 32.1251 16.2501 32.3917 16.3501C32.6584 16.4168 32.9251 16.5335 33.1917 16.7001Z" fill="white"/>
<path d="M21.6546 2.25002C18.2213 1.88335 14.688 1.71668 11.0546 1.75002C7.45464 1.75002 3.95464 1.76668 0.554639 1.80002C0.554639 1.83335 0.554639 1.85002 0.554639 1.85002C0.587972 1.85002 0.604639 1.86668 0.604639 1.90002C0.537972 2.70002 0.504639 3.53335 0.504639 4.40002C0.504639 5.26668 0.504639 6.08335 0.504639 6.85002C0.537972 7.58335 0.571305 8.21668 0.604639 8.75002C0.671305 9.28335 0.737972 9.61668 0.804639 9.75002C1.00464 9.81668 1.35464 9.85002 1.85464 9.85002C2.35464 9.85002 2.90464 9.86668 3.50464 9.90002C4.10464 9.90002 4.70464 9.93335 5.30464 10C5.90464 10.0333 6.40464 10.15 6.80464 10.35L6.85464 10.4C7.05464 15.0667 7.17131 19.05 7.20464 22.35C7.27131 25.65 7.28797 28.3667 7.25464 30.5C7.25464 32.6 7.23797 34.1834 7.20464 35.25C7.17131 36.3167 7.17131 36.9167 7.20464 37.05C7.80464 36.95 8.45464 36.9 9.15464 36.9C9.85464 36.9 10.5546 36.9 11.2546 36.9C11.988 36.9 12.7046 36.9 13.4046 36.9C14.138 36.8667 14.8046 36.8 15.4046 36.7V36.65V36.6C15.338 32.9667 15.288 29.8167 15.2546 27.15C15.2213 24.45 15.188 22.15 15.1546 20.25C15.1213 18.3167 15.088 16.75 15.0546 15.55C15.0546 14.3167 15.0546 13.3334 15.0546 12.6C15.0546 11.8334 15.0546 11.2833 15.0546 10.95C15.088 10.5834 15.1213 10.3167 15.1546 10.15C15.1546 10.1167 15.1546 10.1 15.1546 10.1C15.188 10.0667 15.2046 10.0333 15.2046 10H15.2546H15.3546C16.9213 9.93335 18.1713 9.88335 19.1046 9.85002C20.038 9.81668 20.8213 9.86668 21.4546 10C21.6213 8.80002 21.7046 7.48335 21.7046 6.05002C21.738 4.61668 21.7213 3.35002 21.6546 2.25002Z" fill="white"/>
</svg>
